# AST/ASF file generated using VICON BodyLanguage
# -----------------------------------------------
:version 1.10
:name VICON
:units
  mass 1.0
  length 0.45
  angle deg
:documentation
   .ast/.asf automatically generated from VICON data using
   VICON BodyBuilder and BodyLanguage model FoxedUp or BRILLIANT.MOD
:root
   order TX TY TZ RX RY RZ
   axis XYZ
   position 0 0 0  
   orientation 0 0 0 
:bonedata
  begin
     id 1 
     name lhipjoint
     direction 0.528046 -0.759594 0.379717 
     length 2.39752 
     axis 0 0 0  XYZ
  end
  begin
     id 2 
     name lfemur
     direction 0.34202 -0.939693 0  
     length 7.31175  
     axis 0 0 20  XYZ
    dof rx ry rz
    limits (-160.0 20.0)
           (-70.0 70.0)
           (-60.0 70.0)
  end
  begin
     id 3 
     name ltibia
     direction 0.34202 -0.939693 0   
     length 7.52482   
     axis 0 0 20   XYZ
    dof rx
    limits (-10.0 170.0)
  end
  begin
     id 4 
     name lfoot
     direction 0.0675379 -0.185559 0.980309   
     length 2.00961   
     axis -90 7.62852e-016 20   XYZ
    dof rx rz
    limits (-45.0 90.0)
           (-70.0 20.0)
  end
  begin
     id 5 
     name ltoes
     direction 1.5352e-011 -4.22286e-011 1   
     length 1.01383   
     axis -90 7.62852e-016 20   XYZ
    dof rx
    limits (-90.0 20.0)
  end
  begin
     id 6 
     name rhipjoint
     direction -0.510274 -0.769251 0.384544   
     length 2.36742  
     axis 0 0 0  XYZ 
  end
  begin
     id 7 
     name rfemur
     direction -0.34202 -0.939693 0   
     length 7.45325   
     axis 0 0 -20   XYZ
    dof rx ry rz
    limits (-160.0 20.0)
           (-70.0 70.0)
           (-70.0 60.0)
  end
  begin
     id 8 
     name rtibia
     direction -0.34202 -0.939693 0   
     length 7.49587   
     axis 0 0 -20   XYZ
    dof rx
    limits (-10.0 170.0)
 end
 begin
     id 9 
     name rfoot
     direction -0.106475 -0.292536 0.950308   
     length 2.20898  
     axis -90 -7.62852e-016 -20   XYZ
    dof rx rz
    limits (-45.0 90.0)
           (-20.0 70.0)
  end
  begin
     id 10 
     name rtoes
     direction -1.53597e-011 -4.22023e-011 1   
     length 1.10065   
     axis -90 -7.62852e-016 -20   XYZ
    dof rx
    limits (-90.0 20.0)
  end
  begin
     id 11 
     name lowerback
     direction 0.0260024 0.998026 -0.0571652   
     length 2.11214   
     axis 0 0 0   XYZ
    dof rx ry rz
    limits (-20.0 45.0)
           (-30.0 30.0)
           (-30.0 30.0)
  end
  begin
     id 12 
     name upperback
     direction 0.0216202 0.999542 -0.0211766   
     length 2.11689   
     axis 0 0 0   XYZ
    dof rx ry rz
    limits (-20.0 45.0)
           (-30.0 30.0)
           (-30.0 30.0)
  end
  begin
     id 13 
     name thorax
     direction 0.00883312 0.999944 0.00589057   
     length 2.11821   
     axis 0 0 0   XYZ
    dof rx ry rz
    limits (-20.0 45.0)
           (-30.0 30.0)
           (-30.0 30.0)
  end
  begin
     id 14 
     name lowerneck
     direction -0.059386 0.994433 0.0870401   
     length 1.81176   
     axis 0 0 0   XYZ
    dof rx ry rz
    limits (-20.0 45.0)
           (-30.0 30.0)
           (-30.0 30.0)
  end
  begin
     id 15 
     name upperneck
     direction 0.0506457 0.97328 -0.223967   
     length 1.82382   
     axis 0 0 0   XYZ
    dof rx ry rz
    limits (-20.0 45.0)
           (-30.0 30.0)
           (-30.0 30.0)
  end
  begin
     id 16
     name head
     direction 0.0205902 0.996147 -0.0852487  
     length 1.84805  
     axis 0 0 0   XYZ
    dof rx ry rz
    limits (-20.0 45.0)
           (-30.0 30.0)
           (-30.0 30.0)
  end
  begin
     id 17 
     name lclavicle
     direction 0.949493 0.303881 -0.0782325  
     length 3.60584  
     axis 0 0 0   XYZ
    dof ry rz
    limits (-20.0 10.0)
           (0.0 20.0)
  end
  begin
     id 18 
     name lhumerus
     direction 1 -4.48965e-011 1.48782e-027   
     length 4.95681   
     axis 180 -30 -90   XYZ
    dof rx ry rz
    limits (-60.0 90.0)
           (-90.0 90.0)
           (-90.0 90.0)
  end
  begin
     id 19
     name lradius
     direction 1 -4.48952e-011 2.06528e-027   
     length 3.40915   
     axis 180 -30 -90   XYZ
    dof rx
    limits (-10.0 170.0)
  end
  begin
     id 20
     name lwrist
     direction 1 -4.48964e-011 1.28021e-027   
     length 1.70457   
     axis -1.61767e-015 90 90   XYZ
    dof ry
    limits (-180.0 0.0)
 end
  begin
     id 21 
     name lhand
     direction 1 -4.49094e-011 2.54887e-027   
     length 0.616403   
     axis -1.63363e-015 90 90   XYZ
    dof rx rz
    limits (-90.0 90.0)
           (-45.0 45.0)
  end
  begin
     id 22 
     name lfingers
     direction 1 -4.49002e-011 5.11407e-027   
     length 0.49696   
     axis -3.26723e-015 90 90   XYZ
    dof rx
    limits (0.0 90.0)
  end
  begin
     id 23
     name lthumb
     direction 0.707107 -6.34998e-011 0.707107   
     length 0.713539   
     axis -90 45 -2.25915e-014   XYZ
    dof rx rz
    limits (-45.0 45.0)
           (-45.0 45.0)
  end
  begin
     id 24 
     name rclavicle
     direction -0.937751 0.334612 -0.0930482   
     length 3.46287  
     axis 0 0 0   XYZ 
    dof ry rz
    limits (-10.0 20.0)
           (-20.0 0.0)
  end
  begin
     id 25 
     name rhumerus
     direction -1 -4.48962e-011 3.59972e-027  
     length 5.352   
     axis 180 30 90   XYZ
    dof rx ry rz
    limits (-90.0 60.0)
           (-90.0 90.0)
           (-90.0 90.0)
  end
  begin
     id 26 
     name rradius
     direction -1 -4.48987e-011 -3.76925e-027   
     length 3.43721   
     axis 180 30 90   XYZ
    dof rx
    limits (-10.0 170.0)
  end
  begin
     id 27 
     name rwrist
     direction -1 -4.48943e-011 1.28112e-027   
     length 1.7186   
     axis -1.61767e-015 -90 -90   XYZ
    dof ry
    limits (-180.0 0.0)
  end
  begin
     id 28
     name rhand
     direction -1 -4.49027e-011 2.55483e-027   
     length 0.72009   
     axis -1.63363e-015 -90 -90   XYZ
    dof rx rz
    limits (-90.0 90.0)
           (-45.0 45.0)
  end
  begin
     id 29
     name rfingers
     direction -1 -4.48827e-011 5.14506e-027   
     length 0.580555   
     axis -3.26723e-015 -90 -90   XYZ
    dof rx
    limits (0.0 90.0)
  end
  begin
     id 30
     name rthumb
     direction -0.707107 -6.34936e-011 0.707107   
     length 0.833564   
     axis -90 -45 2.25915e-014   XYZ
    dof rx rz
    limits (-45.0 45.0)
           (-45.0 45.0)
  end
:hierarchy
  begin
    root lhipjoint rhipjoint lowerback
    lhipjoint lfemur
    lfemur ltibia
    ltibia lfoot
    lfoot ltoes
    rhipjoint rfemur
    rfemur rtibia
    rtibia rfoot
    rfoot rtoes
    lowerback upperback
    upperback thorax
    thorax lowerneck lclavicle rclavicle
    lowerneck upperneck
    upperneck head
    lclavicle lhumerus
    lhumerus lradius
    lradius lwrist
    lwrist lhand lthumb
    lhand lfingers
    rclavicle rhumerus
    rhumerus rradius
    rradius rwrist
    rwrist rhand rthumb
    rhand rfingers
  end

#!OML:ASF H:\Terrain\Patient Classification 1\Terrain2\Thursday\justin.ASF
:FULLY-SPECIFIED
:DEGREES
252
root 16.8942 20.5261 -0.551085 -100.232 82.9061 -101.299
lowerback 6.55995 0.227957 5.73413
upperback 3.30898 0.883009 4.75748
thorax -0.250944 0.55688 1.63736
lowerneck -6.1488 -3.29017 -12.3818
upperneck 44.2346 -0.8229 5.0883
head 17.5833 -0.779017 4.81548
rclavicle -1.11319e-014 -4.45278e-014
rhumerus -34.7941 -7.94687 -72.1163
rradius 53.2188
rwrist -14.5187
rhand -21.2102 12.709
rfingers 7.12502
rthumb 5.17138 -17.2079
lclavicle -1.11319e-014 -4.45278e-014
lhumerus -42.9934 12.1291 80.4868
lradius 30.5673
lwrist -2.57308
lhand -20.1372 15.3196
lfingers 7.12502
lthumb 6.20737 45.2087
rfemur -16.9007 -5.32515 29.0367
rtibia 38.9592
rfoot -20.6789 3.9126
rtoes 15.8849
lfemur -20.9286 -7.71908 -9.77636
ltibia 39.2182
lfoot -12.6955 -21.5071
ltoes 24.8791
253
root 16.9265 20.5336 -0.572383 -99.7308 82.8552 -100.899
lowerback 6.36316 -0.0174268 5.78973
upperback 3.22496 0.546396 4.80189
thorax -0.23262 0.387893 1.67521
lowerneck -6.12926 -3.16182 -12.3397
upperneck 44.0636 -0.676227 5.02659
head 17.4502 -0.725112 4.78298
rclavicle 5.56597e-015 2.94201e-014
rhumerus -34.9637 -8.49612 -72.035
rradius 52.4872
rwrist -14.6435
rhand -21.2397 12.6261
rfingers 7.12502
rthumb 5.14286 -17.2915
lclavicle 5.56597e-015 2.94201e-014
lhumerus -43.1082 12.2619 80.6554
lradius 30.6329
lwrist -2.80009
lhand -20.109 15.6605
lfingers 7.12502
lthumb 6.23461 45.5488
rfemur -16.7764 -5.39806 29.098
rtibia 38.8176
rfoot -20.6877 3.53346
rtoes 14.6554
lfemur -20.9249 -7.49495 -9.79885
ltibia 39.3112
lfoot -13.0169 -21.4431
ltoes 24.5439
254
root 16.9436 20.5398 -0.580072 -99.3022 82.6269 -100.517
lowerback 6.40168 -0.27983 5.89411
upperback 3.13951 0.21955 4.94007
thorax -0.34663 0.223957 1.78163
lowerneck -6.15381 -3.00292 -12.3519
upperneck 43.8978 -0.482398 5.01285
head 17.3273 -0.655006 4.79129
rclavicle -1.59028e-015 -3.57812e-014
rhumerus -35.1528 -8.92293 -71.8672
rradius 51.8114
rwrist -14.4544
rhand -21.4044 12.3781
rfingers 7.12502
rthumb 4.98383 -17.5432
lclavicle -1.59028e-015 -3.57812e-014
lhumerus -43.1598 12.6276 80.6194
lradius 30.6675
lwrist -3.34966
lhand -19.9494 15.6038
lfingers 7.12502
lthumb 6.38867 45.4875
rfemur -16.6959 -4.76072 29.3304
rtibia 38.902
rfoot -20.7739 3.3512
rtoes 16.9426
lfemur -20.874 -6.93216 -9.56915
ltibia 39.1739
lfoot -12.805 -21.8463
ltoes 25.4194
255
root 16.9626 20.5461 -0.590657 -99.0876 82.5816 -100.236
lowerback 6.4911 -0.441519 5.95511
upperback 3.11044 0.0191312 4.93626
thorax -0.428654 0.122857 1.75739
lowerneck -6.19127 -2.97436 -12.2471
upperneck 43.7601 -0.524344 5.04351
head 17.2536 -0.657089 4.76792
rclavicle -1.15295e-014 -7.71285e-014
rhumerus -35.4821 -9.46535 -71.7294
rradius 51.1725
rwrist -14.3693
rhand -21.9608 12.1739
rfingers 7.12502
rthumb 4.44661 -17.7594
lclavicle -1.15295e-014 -7.71285e-014
lhumerus -42.8916 12.8564 80.444
lradius 30.4243
lwrist -4.15802
lhand -19.5943 15.6695
lfingers 7.12502
lthumb 6.73149 45.5425
rfemur -16.5227 -4.4445 29.3342
rtibia 39.001
rfoot -21.0268 3.02318
rtoes 15.3053
lfemur -20.6245 -6.49017 -9.58518
ltibia 38.943
lfoot -12.4848 -22.2293
ltoes 26.6389
256
root 16.9995 20.5504 -0.61401 -99.7387 83.3606 -100.744
lowerback 6.48208 -0.550734 5.19745
upperback 3.10614 -0.186377 4.77974
thorax -0.43032 0.00809488 2.03032
lowerneck -6.2094 -3.03661 -12.2069
upperneck 43.6532 -0.568385 4.78988
head 17.2039 -0.705321 4.62508
rclavicle 9.74045e-015 -1.11319e-014
rhumerus -35.8677 -9.77834 -71.4756
rradius 50.5652
rwrist -14.5334
rhand -22.2924 12.145
rfingers 7.12502
rthumb 4.12642 -17.7948
lclavicle 9.74045e-015 -1.11319e-014
lhumerus -42.7255 13.122 80.4919
lradius 30.1799
lwrist -4.95263
lhand -19.5059 15.4406
lfingers 7.12502
lthumb 6.81683 45.3109
rfemur -16.2773 -4.82983 28.3422
rtibia 39.0819
rfoot -21.2493 3.08891
rtoes 12.4738
lfemur -20.1277 -6.65515 -10.6293
ltibia 38.7179
lfoot -12.4584 -21.9932
ltoes 27.2669
257
root 17.0374 20.5516 -0.647735 -97.8223 83.8179 -98.7243
lowerback 6.43463 -0.564983 4.94087
upperback 3.07829 -0.232138 4.67122
thorax -0.432753 -0.0203545 2.0634
lowerneck -6.17864 -3.12951 -12.1335
upperneck 43.5743 -0.654261 4.51914
head 17.1633 -0.765468 4.46477
rclavicle -1.19271e-015 -2.78299e-014
rhumerus -36.342 -10.0761 -71.2093
rradius 50.0074
rwrist -15.1046
rhand -22.5973 12.1134
rfingers 7.12502
rthumb 3.83198 -17.8319
lclavicle -1.19271e-015 -2.78299e-014
lhumerus -42.6324 12.7352 80.897
lradius 30.1598
lwrist -4.7783
lhand -19.9726 15.3092
lfingers 7.12502
lthumb 6.36625 45.1935
rfemur -16.0339 -4.96353 27.7241
rtibia 39.134
rfoot -21.4104 3.48432
rtoes 12.2331
lfemur -19.6768 -6.87215 -11.2719
ltibia 38.5547
lfoot -12.6944 -21.3472
ltoes 27.1119
258
root 17.0665 20.546 -0.678616 -94.5818 83.5198 -95.3419
lowerback 6.4693 -0.600715 5.49083
upperback 3.09493 -0.239505 4.70138
thorax -0.435839 -0.0163478 1.78906
lowerneck -6.26846 -3.19861 -12.1561
upperneck 43.6248 -0.801295 4.62429
head 17.2343 -0.823868 4.49992
rclavicle -6.36111e-015 -4.77083e-014
rhumerus -36.7405 -10.5668 -71.0306
rradius 49.3264
rwrist -15.4894
rhand -22.8671 12.3732
rfingers 7.12502
rthumb 3.57141 -17.5766
lclavicle -6.36111e-015 -4.77083e-014
lhumerus -42.4363 12.0428 81.3092
lradius 30.2788
lwrist -4.12974
lhand -20.2614 15.6353
lfingers 7.12502
lthumb 6.08741 45.5278
rfemur -15.755 -4.90074 27.9779
rtibia 39.1315
rfoot -21.5905 3.69129
rtoes 12.0734
lfemur -19.3169 -6.65854 -11.0578
ltibia 38.4824
lfoot -13.1282 -20.9559
ltoes 25.6528
259
root 17.0813 20.5452 -0.699357 -91.3744 83.4598 -92.1597
lowerback 6.45889 -0.663162 5.61946
upperback 3.11113 -0.316368 4.70332
thorax -0.414287 -0.0526808 1.72467
lowerneck -6.43903 -3.21972 -12.1932
upperneck 43.6358 -0.880082 4.73616
head 17.2938 -0.859129 4.54816
rclavicle 1.98785e-015 -3.33958e-014
rhumerus -36.954 -11.0554 -70.9179
rradius 48.6308
rwrist -15.4035
rhand -22.7206 12.653
rfingers 7.12502
rthumb 3.71287 -17.2944
lclavicle 1.98785e-015 -3.33958e-014
lhumerus -42.2226 11.8446 81.44
lradius 30.5375
lwrist -3.86045
lhand -19.9941 15.8323
lfingers 7.12502
lthumb 6.34547 45.7172
rfemur -15.7374 -4.83149 27.9666
rtibia 39.0961
rfoot -21.5639 3.98674
rtoes 12.0697
lfemur -19.2182 -6.4347 -11.0982
ltibia 38.4904
lfoot -13.545 -20.5841
ltoes 24.5855
260
root 17.0934 20.5476 -0.722258 -87.0205 83.8808 -87.9415
lowerback 6.37163 -0.609174 5.38231
upperback 3.08943 -0.282744 4.43341
thorax -0.388581 -0.0426733 1.57355
lowerneck -6.48917 -3.25605 -12.0455
upperneck 43.5475 -1.08318 4.92302
head 17.2709 -0.902824 4.57086
rclavicle 9.93923e-017 -2.38542e-014
rhumerus -37.2082 -11.5307 -70.9486
rradius 47.9684
rwrist -15.5497
rhand -22.4826 12.464
rfingers 7.12502
rthumb 3.94273 -17.4793
lclavicle 9.93923e-017 -2.38542e-014
lhumerus -41.9939 11.7545 81.2014
lradius 30.7611
lwrist -4.13195
lhand -19.5568 15.4246
lfingers 7.12502
lthumb 6.76764 45.2964
rfemur -15.8606 -4.7354 27.3613
rtibia 39.0852
rfoot -21.3782 4.74642
rtoes 14.4788
lfemur -19.2006 -6.39893 -11.6949
ltibia 38.5149
lfoot -13.8635 -19.9657
ltoes 24.2922
261
root 17.12 20.5473 -0.753687 -81.4723 84.4836 -82.435
lowerback 6.27954 -0.430683 5.06863
upperback 3.05013 -0.0915116 4.06372
thorax -0.37655 0.0438894 1.35193
lowerneck -6.50216 -3.39293 -12.0996
upperneck 43.4853 -1.47164 5.33009
head 17.2873 -1.02545 4.70932
rclavicle -2.28602e-015 7.95139e-016
rhumerus -37.626 -11.927 -70.8259
rradius 47.236
rwrist -15.8985
rhand -22.4854 12.2519
rfingers 7.12502
rthumb 3.94009 -17.6914
lclavicle -2.28602e-015 7.95139e-016
lhumerus -41.7727 11.1238 81.3036
lradius 30.9724
lwrist -3.94769
lhand -20.121 15.2034
lfingers 7.12502
lthumb 6.22297 45.092
rfemur -15.7975 -4.83775 26.4281
rtibia 39.106
rfoot -21.1801 6.02129
rtoes 18.7331
lfemur -18.9946 -6.28225 -12.5946
ltibia 38.5064
lfoot -14.3141 -19.3696
ltoes 23.2104
262
root 17.141 20.5467 -0.785444 -73.455 84.7732 -74.4493
lowerback 6.32463 -0.179254 4.78193
upperback 2.9524 0.223039 3.91167
thorax -0.499447 0.191713 1.3335
lowerneck -6.39781 -3.61493 -12.1839
upperneck 43.3695 -1.87557 5.43217
head 17.2519 -1.19392 4.70214
rclavicle -2.98177e-015 -2.94201e-014
rhumerus -38.1483 -12.2626 -70.4151
rradius 46.5255
rwrist -15.9153
rhand -22.4995 12.2769
rfingers 7.12502
rthumb 3.92639 -17.6667
lclavicle -2.98177e-015 -2.94201e-014
lhumerus -41.6839 10.1714 81.9776
lradius 31.4702
lwrist -2.90148
lhand -21.2943 15.871
lfingers 7.12502
lthumb 5.09021 45.7899
rfemur -15.7581 -4.66354 25.7926
rtibia 39.113
rfoot -20.9515 6.86158
rtoes 21.0184
lfemur -18.8018 -6.14663 -13.2228
ltibia 38.4986
lfoot -14.7755 -18.6545
ltoes 22.1843
263
root 17.1603 20.5473 -0.814229 -66.1242 84.3528 -67.0956
lowerback 6.36602 -0.0973202 4.87644
upperback 2.94977 0.346708 4.05895
thorax -0.523896 0.254796 1.42491
lowerneck -6.32501 -3.69662 -12.1373
upperneck 43.245 -1.9699 5.20069
head 17.1715 -1.25852 4.55844
rclavicle -4.96962e-015 1.03368e-014
rhumerus -38.3243 -12.2089 -70.0948
rradius 45.7813
rwrist -15.6496
rhand -21.9503 12.209
rfingers 7.12502
rthumb 4.45676 -17.7241
lclavicle -4.96962e-015 1.03368e-014
lhumerus -41.6303 10.207 82.3247
lradius 32.0573
lwrist -2.19453
lhand -21.7564 16.5437
lfingers 7.12502
lthumb 4.64397 46.4728
rfemur -15.6938 -4.18945 25.854
rtibia 39.079
rfoot -20.7517 7.4023
rtoes 23.3082
lfemur -18.5437 -6.09874 -13.1665
ltibia 38.5267
lfoot -15.1454 -17.7968
ltoes 20.9537
264
root 17.1894 20.5462 -0.842674 -61.0675 83.7026 -61.9911
lowerback 6.25018 -0.181964 5.12011
upperback 3.04997 0.245151 4.29046
thorax -0.356377 0.212695 1.53609
lowerneck -6.40624 -3.62603 -12.1684
upperneck 43.1712 -1.80361 4.98195
head 17.1274 -1.23171 4.47856
rclavicle -2.38542e-015 4.77083e-015
rhumerus -38.1915 -11.791 -69.9525
rradius 44.9546
rwrist -15.3334
rhand -21.3115 12.0448
rfingers 7.12502
rthumb 5.07358 -17.8745
lclavicle -2.38542e-015 4.77083e-015
lhumerus -41.4617 10.9976 82.2777
lradius 32.4456
lwrist -1.90043
lhand -21.9976 16.6836
lfingers 7.12502
lthumb 4.41112 46.6176
rfemur -15.6209 -3.9773 26.099
rtibia 39.0475
rfoot -20.7229 7.97467
rtoes 23.8398
lfemur -18.221 -5.99641 -12.9154
ltibia 38.5561
lfoot -15.4978 -17.1
ltoes 19.9576
265
root 17.2098 20.5376 -0.870729 -54.9991 83.2766 -55.9455
lowerback 6.22246 -0.121235 5.16617
upperback 3.06483 0.323194 4.27535
thorax -0.324275 0.252076 1.48985
lowerneck -6.40175 -3.62332 -12.1921
upperneck 43.0845 -1.86918 5.06786
head 17.0833 -1.25893 4.50482
rclavicle -2.18663e-015 3.18055e-015
rhumerus -38.2451 -11.7872 -69.846
rradius 44.064
rwrist -14.9815
rhand -21.228 12.0921
rfingers 7.12502
rthumb 5.15417 -17.8252
lclavicle -2.18663e-015 3.18055e-015
lhumerus -41.2606 11.2979 82.138
lradius 32.8151
lwrist -1.80792
lhand -21.9122 16.6909
lfingers 7.12502
lthumb 4.49352 46.6232
rfemur -15.7396 -3.82961 26.046
rtibia 39.0325
rfoot -20.9757 7.89995
rtoes 18.4357
lfemur -18.025 -5.99122 -13.0055
ltibia 38.5769
lfoot -15.7973 -16.4305
ltoes 20.4068
266
root 17.2226 20.5315 -0.898836 -47.8729 83.0407 -48.8829
lowerback 6.25341 0.0841958 5.04829
upperback 3.01616 0.578968 3.99432
thorax -0.387274 0.37327 1.24778
lowerneck -6.24523 -3.71774 -11.9856
upperneck 42.9328 -2.19936 5.26807
head 16.9884 -1.34047 4.49809
rclavicle -1.53064e-014 -6.75868e-014
rhumerus -38.4945 -12.233 -69.8101
rradius 43.135
rwrist -14.8281
rhand -21.1792 12.5687
rfingers 7.12502
rthumb 5.20131 -17.3475
lclavicle -1.53064e-014 -6.75868e-014
lhumerus -41.084 10.889 81.9583
lradius 33.3004
lwrist -1.74038
lhand -21.4679 16.8453
lfingers 7.12502
lthumb 4.9226 46.7681
rfemur -15.9046 -3.54803 25.6436
rtibia 39.0706
rfoot -21.2517 7.68407
rtoes 13.1095
lfemur -17.8755 -6.20036 -13.4754
ltibia 38.564
lfoot -16.1629 -15.5705
ltoes 20.6456
